<svg aria-hidden="true" style="position: absolute; width: 0; height: 0; overflow: hidden;" version="1.1" xmlns="http://www.w3.org/2000/svg" xmlns:xlink="http://www.w3.org/1999/xlink">
<defs>
<symbol id="icon-Vector" viewBox="0 0 32 32">
<path fill="#fff" style="fill: var(--color1, #fff)" d="M30.276 1.724c0.362 0.362 0.485 0.9 0.316 1.383l-9.333 26.667c-0.181 0.516-0.658 0.869-1.204 0.892s-1.051-0.291-1.273-0.791l-5.125-11.531-11.531-5.125c-0.5-0.222-0.813-0.727-0.791-1.273s0.376-1.024 0.892-1.204l26.667-9.333c0.484-0.169 1.021-0.046 1.383 0.316zM16.257 17.629l3.595 8.090 6.292-17.978-9.888 9.888zM24.259 5.855l-17.978 6.292 8.090 3.596 9.888-9.888z"></path>
</symbol>
<symbol id="icon-Path" viewBox="0 0 32 32">
<path fill="#f8f8f8" style="fill: var(--color2, #f8f8f8)" d="M31.17 15.979c0 1.026-0.104 2.051-0.309 3.049-0.2 0.975-0.496 1.932-0.884 2.847-0.379 0.899-0.85 1.765-1.399 2.573-0.541 0.803-1.165 1.556-1.85 2.242-0.687 0.683-1.442 1.305-2.245 1.849-0.811 0.546-1.678 1.015-2.577 1.397-0.916 0.386-1.876 0.682-2.85 0.882-1 0.206-2.028 0.311-3.056 0.311s-2.056-0.105-3.055-0.311c-0.976-0.2-1.935-0.496-2.851-0.882-0.899-0.381-1.768-0.851-2.578-1.397-0.802-0.544-1.558-1.166-2.243-1.849-0.686-0.687-1.31-1.439-1.852-2.242-0.547-0.808-1.018-1.674-1.399-2.573-0.388-0.915-0.685-1.872-0.886-2.847-0.203-0.999-0.307-2.023-0.307-3.049s0.104-2.053 0.307-3.050c0.201-0.975 0.498-1.934 0.886-2.847 0.381-0.899 0.852-1.766 1.399-2.574 0.542-0.803 1.166-1.555 1.852-2.242 0.685-0.684 1.441-1.304 2.243-1.847 0.81-0.548 1.679-1.018 2.578-1.4 0.916-0.387 1.875-0.684 2.851-0.882 0.999-0.204 2.027-0.308 3.055-0.308s2.056 0.104 3.056 0.308c0.974 0.198 1.933 0.495 2.85 0.882 0.899 0.382 1.767 0.851 2.577 1.4 0.802 0.543 1.558 1.163 2.245 1.847 0.685 0.687 1.309 1.439 1.851 2.242 0.549 0.808 1.020 1.675 1.399 2.574 0.388 0.914 0.684 1.872 0.884 2.847 0.205 0.996 0.309 2.023 0.309 3.050zM10.472 4.278c-3.613 1.704-6.309 5.028-7.15 9.034 0.342 0.003 5.74 0.071 11.961-1.579-2.242-3.978-4.638-7.225-4.811-7.455zM16.356 13.725c-6.671 1.994-13.072 1.851-13.301 1.842-0.004 0.139-0.010 0.274-0.010 0.413 0 3.323 1.256 6.353 3.319 8.644-0.004-0.007 3.541-6.288 10.532-8.545 0.169-0.056 0.341-0.107 0.511-0.155-0.325-0.735-0.68-1.472-1.051-2.198zM24.555 6.27c-2.281-2.008-5.276-3.227-8.556-3.227-1.053 0-2.074 0.127-3.053 0.362 0.194 0.26 2.628 3.484 4.843 7.546 4.889-1.83 6.734-4.635 6.766-4.682zM18.29 18.067c-0.029 0.010-0.058 0.018-0.086 0.028-7.644 2.661-10.14 8.023-10.167 8.082 2.199 1.708 4.958 2.738 7.963 2.738 1.794 0 3.503-0.365 5.058-1.025-0.192-1.13-0.945-5.092-2.768-9.823zM23.239 26.708c2.909-1.96 4.975-5.073 5.551-8.678-0.267-0.086-3.891-1.232-8.073-0.562 1.699 4.663 2.39 8.461 2.522 9.24zM18.787 12.88c0.301 0.617 0.592 1.245 0.861 1.876 0.096 0.226 0.189 0.448 0.28 0.67 4.451-0.559 8.835 0.382 9.023 0.42-0.030-3.067-1.128-5.881-2.946-8.085-0.025 0.035-2.102 3.033-7.218 5.119z"></path>
</symbol>
<symbol id="icon-Vector1" viewBox="0 0 26 32">
<path fill="none" stroke="#fff" style="stroke: var(--color1, #fff)" stroke-linejoin="miter" stroke-linecap="butt" stroke-miterlimit="4" stroke-width="2.4" d="M1.6 27.378c0-3.861 2.716-7.15 6.406-7.758l0.332-0.055c2.955-0.487 5.967-0.487 8.922 0l0.332 0.055c3.691 0.608 6.406 3.897 6.406 7.758 0 1.669-1.31 3.022-2.925 3.022h-16.55c-1.615 0-2.925-1.353-2.925-3.022z"></path>
<path fill="none" stroke="#fff" style="stroke: var(--color1, #fff)" stroke-linejoin="miter" stroke-linecap="butt" stroke-miterlimit="4" stroke-width="2.4" d="M19.333 7.9c0 3.479-2.925 6.3-6.533 6.3s-6.533-2.821-6.533-6.3 2.925-6.3 6.533-6.3c3.608 0 6.533 2.821 6.533 6.3z"></path>
</symbol>
<symbol id="icon-Vector2" viewBox="0 0 29 32">
<path fill="#fff" style="fill: var(--color1, #fff)" d="M2.645 24.074v0zM2.090 15.112v0zM26.71 15.112v0zM26.155 24.074v0zM17.658 30.148v0zM11.142 30.148v0zM8.132 9.257v0zM20.668 9.257v0zM9.944 29.962v0zM2.794 24.437v0zM18.856 29.962v0zM26.006 24.437v0zM26.588 14.662v0zM2.212 14.662v0zM19.484 9.641v0zM18.045 9.934c-0.267 0.607 0.009 1.315 0.616 1.581s1.315-0.009 1.581-0.616l-2.197-0.966zM9.316 9.641v0zM8.558 10.9c0.267 0.607 0.975 0.882 1.581 0.616s0.882-0.975 0.616-1.581l-2.197 0.966zM13.189 1.719v0zM13.377 1.687v0zM15.423 1.687v0zM15.611 1.719v0zM19.88 5.677v0zM8.919 5.677v0zM18.672 28.776l-1.198 0.186 0.369 2.372 1.198-0.187-0.369-2.371zM11.326 28.962l-1.198-0.186-0.369 2.371 1.198 0.187 0.369-2.372zM25.43 14.977l0.122 0.45 2.316-0.63-0.122-0.45-2.316 0.63zM25.044 23.62l-0.149 0.364 2.221 0.908 0.149-0.364-2.221-0.908zM3.904 23.983l-0.149-0.363-2.221 0.908 0.149 0.363 2.221-0.908zM3.248 15.427l0.122-0.45-2.316-0.63-0.122 0.45 2.316 0.63zM3.756 23.62c-1.069-2.613-1.246-5.48-0.508-8.193l-2.316-0.63c-0.877 3.224-0.665 6.63 0.602 9.731l2.221-0.908zM25.552 15.427c0.738 2.713 0.56 5.579-0.508 8.193l2.221 0.908c1.268-3.1 1.479-6.507 0.602-9.731l-2.316 0.63zM17.474 28.962c-2.036 0.317-4.112 0.317-6.148 0l-0.369 2.372c2.28 0.355 4.605 0.355 6.886 0l-0.369-2.372zM8.37 10.433c3.976-0.805 8.084-0.805 12.060 0l0.476-2.352c-4.29-0.868-8.722-0.868-13.012 0l0.476 2.352zM10.128 28.776c-2.842-0.442-5.196-2.28-6.224-4.793l-2.221 0.908c1.361 3.328 4.443 5.69 8.076 6.256l0.369-2.371zM19.041 31.147c3.634-0.565 6.716-2.928 8.076-6.256l-2.221-0.908c-1.027 2.513-3.382 4.35-6.224 4.793l0.369 2.371zM20.43 10.433c2.464 0.499 4.383 2.276 5 4.544l2.316-0.63c-0.867-3.189-3.532-5.598-6.84-6.267l-0.476 2.352zM7.894 8.080c-3.307 0.669-5.973 3.078-6.84 6.267l2.316 0.63c0.617-2.268 2.536-4.046 5-4.544l-0.476-2.352zM18.385 9.158l-0.341 0.776 2.197 0.966 0.341-0.776-2.197-0.966zM8.217 10.124l0.341 0.776 2.197-0.966-0.341-0.776-2.197 0.966zM13.391 2.902l0.188-0.032-0.404-2.366-0.188 0.032 0.404 2.366zM15.222 2.87l0.188 0.032 0.404-2.366-0.188-0.032-0.404 2.366zM18.708 5.935c0.237 1.079 0.125 2.203-0.323 3.224l2.197 0.966c0.652-1.484 0.817-3.125 0.47-4.704l-2.344 0.515zM7.747 5.42c-0.347 1.579-0.182 3.22 0.47 4.704l2.197-0.966c-0.449-1.021-0.56-2.144-0.323-3.224l-2.344-0.515zM13.579 2.87c0.543-0.093 1.1-0.093 1.643 0l0.404-2.366c-0.811-0.138-1.64-0.138-2.451 0l0.404 2.366zM21.053 5.42c-0.556-2.532-2.651-4.442-5.239-4.884l-0.404 2.366c1.68 0.287 2.964 1.509 3.299 3.033l2.344-0.515zM10.091 5.935c0.335-1.524 1.619-2.747 3.299-3.033l-0.404-2.366c-2.589 0.442-4.683 2.353-5.239 4.884l2.344 0.515z"></path>
</symbol>
<symbol id="icon-user" viewBox="0 0 32 32">
<path d="M18 22.082v-1.649c2.203-1.241 4-4.337 4-7.432 0-4.971 0-9-6-9s-6 4.029-6 9c0 3.096 1.797 6.191 4 7.432v1.649c-6.784 0.555-12 3.888-12 7.918h28c0-4.030-5.216-7.364-12-7.918z"></path>
</symbol>
<symbol id="icon-search" viewBox="0 0 32 32">
<path d="M31.008 27.231l-7.58-6.447c-0.784-0.705-1.622-1.029-2.299-0.998 1.789-2.096 2.87-4.815 2.87-7.787 0-6.627-5.373-12-12-12s-12 5.373-12 12 5.373 12 12 12c2.972 0 5.691-1.081 7.787-2.87-0.031 0.677 0.293 1.515 0.998 2.299l6.447 7.58c1.104 1.226 2.907 1.33 4.007 0.23s0.997-2.903-0.23-4.007zM12 20c-4.418 0-8-3.582-8-8s3.582-8 8-8 8 3.582 8 8-3.582 8-8 8z"></path>
</symbol>
<symbol id="icon-arrow-up-right2" viewBox="0 0 32 32">
<path d="M7.414 27.414l16.586-16.586v7.172c0 1.105 0.895 2 2 2s2-0.895 2-2v-12c0-0.809-0.487-1.538-1.235-1.848-0.248-0.103-0.508-0.151-0.765-0.151v-0.001h-12c-1.105 0-2 0.895-2 2s0.895 2 2 2h7.172l-16.586 16.586c-0.391 0.39-0.586 0.902-0.586 1.414s0.195 1.024 0.586 1.414c0.781 0.781 2.047 0.781 2.828 0z"></path>
</symbol>
<symbol id="icon-google" viewBox="0 0 32 32">
<path d="M16.319 13.713v5.487h9.075c-0.369 2.356-2.744 6.9-9.075 6.9-5.463 0-9.919-4.525-9.919-10.1s4.456-10.1 9.919-10.1c3.106 0 5.188 1.325 6.375 2.469l4.344-4.181c-2.788-2.612-6.4-4.188-10.719-4.188-8.844 0-16 7.156-16 16s7.156 16 16 16c9.231 0 15.363-6.494 15.363-15.631 0-1.050-0.113-1.85-0.25-2.65l-15.113-0.006z"></path>
</symbol>
<symbol id="icon-instagram" viewBox="0 0 32 32">
<path d="M16 2.881c4.275 0 4.781 0.019 6.462 0.094 1.563 0.069 2.406 0.331 2.969 0.55 0.744 0.288 1.281 0.638 1.837 1.194 0.563 0.563 0.906 1.094 1.2 1.838 0.219 0.563 0.481 1.412 0.55 2.969 0.075 1.688 0.094 2.194 0.094 6.463s-0.019 4.781-0.094 6.463c-0.069 1.563-0.331 2.406-0.55 2.969-0.288 0.744-0.637 1.281-1.194 1.837-0.563 0.563-1.094 0.906-1.837 1.2-0.563 0.219-1.413 0.481-2.969 0.55-1.688 0.075-2.194 0.094-6.463 0.094s-4.781-0.019-6.463-0.094c-1.563-0.069-2.406-0.331-2.969-0.55-0.744-0.288-1.281-0.637-1.838-1.194-0.563-0.563-0.906-1.094-1.2-1.837-0.219-0.563-0.481-1.413-0.55-2.969-0.075-1.688-0.094-2.194-0.094-6.463s0.019-4.781 0.094-6.463c0.069-1.563 0.331-2.406 0.55-2.969 0.288-0.744 0.638-1.281 1.194-1.838 0.563-0.563 1.094-0.906 1.838-1.2 0.563-0.219 1.412-0.481 2.969-0.55 1.681-0.075 2.188-0.094 6.463-0.094zM16 0c-4.344 0-4.887 0.019-6.594 0.094-1.7 0.075-2.869 0.35-3.881 0.744-1.056 0.412-1.95 0.956-2.837 1.85-0.894 0.888-1.438 1.781-1.85 2.831-0.394 1.019-0.669 2.181-0.744 3.881-0.075 1.713-0.094 2.256-0.094 6.6s0.019 4.887 0.094 6.594c0.075 1.7 0.35 2.869 0.744 3.881 0.413 1.056 0.956 1.95 1.85 2.837 0.887 0.887 1.781 1.438 2.831 1.844 1.019 0.394 2.181 0.669 3.881 0.744 1.706 0.075 2.25 0.094 6.594 0.094s4.888-0.019 6.594-0.094c1.7-0.075 2.869-0.35 3.881-0.744 1.050-0.406 1.944-0.956 2.831-1.844s1.438-1.781 1.844-2.831c0.394-1.019 0.669-2.181 0.744-3.881 0.075-1.706 0.094-2.25 0.094-6.594s-0.019-4.887-0.094-6.594c-0.075-1.7-0.35-2.869-0.744-3.881-0.394-1.063-0.938-1.956-1.831-2.844-0.887-0.887-1.781-1.438-2.831-1.844-1.019-0.394-2.181-0.669-3.881-0.744-1.712-0.081-2.256-0.1-6.6-0.1v0z"></path>
<path d="M16 7.781c-4.537 0-8.219 3.681-8.219 8.219s3.681 8.219 8.219 8.219 8.219-3.681 8.219-8.219c0-4.537-3.681-8.219-8.219-8.219zM16 21.331c-2.944 0-5.331-2.387-5.331-5.331s2.387-5.331 5.331-5.331c2.944 0 5.331 2.387 5.331 5.331s-2.387 5.331-5.331 5.331z"></path>
<path d="M26.462 7.456c0 1.060-0.859 1.919-1.919 1.919s-1.919-0.859-1.919-1.919c0-1.060 0.859-1.919 1.919-1.919s1.919 0.859 1.919 1.919z"></path>
</symbol>
<symbol id="icon-twitter" viewBox="0 0 32 32">
<path d="M32 7.075c-1.175 0.525-2.444 0.875-3.769 1.031 1.356-0.813 2.394-2.1 2.887-3.631-1.269 0.75-2.675 1.3-4.169 1.594-1.2-1.275-2.906-2.069-4.794-2.069-3.625 0-6.563 2.938-6.563 6.563 0 0.512 0.056 1.012 0.169 1.494-5.456-0.275-10.294-2.888-13.531-6.862-0.563 0.969-0.887 2.1-0.887 3.3 0 2.275 1.156 4.287 2.919 5.463-1.075-0.031-2.087-0.331-2.975-0.819 0 0.025 0 0.056 0 0.081 0 3.181 2.263 5.838 5.269 6.437-0.55 0.15-1.131 0.231-1.731 0.231-0.425 0-0.831-0.044-1.237-0.119 0.838 2.606 3.263 4.506 6.131 4.563-2.25 1.762-5.075 2.813-8.156 2.813-0.531 0-1.050-0.031-1.569-0.094 2.913 1.869 6.362 2.95 10.069 2.95 12.075 0 18.681-10.006 18.681-18.681 0-0.287-0.006-0.569-0.019-0.85 1.281-0.919 2.394-2.075 3.275-3.394z"></path>
</symbol>
<symbol id="icon-youtube" viewBox="0 0 32 32">
<path d="M31.681 9.6c0 0-0.313-2.206-1.275-3.175-1.219-1.275-2.581-1.281-3.206-1.356-4.475-0.325-11.194-0.325-11.194-0.325h-0.012c0 0-6.719 0-11.194 0.325-0.625 0.075-1.987 0.081-3.206 1.356-0.963 0.969-1.269 3.175-1.269 3.175s-0.319 2.588-0.319 5.181v2.425c0 2.587 0.319 5.181 0.319 5.181s0.313 2.206 1.269 3.175c1.219 1.275 2.819 1.231 3.531 1.369 2.563 0.244 10.881 0.319 10.881 0.319s6.725-0.012 11.2-0.331c0.625-0.075 1.988-0.081 3.206-1.356 0.962-0.969 1.275-3.175 1.275-3.175s0.319-2.587 0.319-5.181v-2.425c-0.006-2.588-0.325-5.181-0.325-5.181zM12.694 20.15v-8.994l8.644 4.513-8.644 4.481z"></path>
</symbol>
<symbol id="icon-dribbble" viewBox="0 0 32 32">
<path d="M16 32c-8.825 0-16-7.175-16-16s7.175-16 16-16c8.825 0 16 7.175 16 16s-7.175 16-16 16v0zM29.494 18.188c-0.469-0.15-4.231-1.269-8.512-0.581 1.788 4.912 2.512 8.912 2.656 9.744 3.063-2.075 5.25-5.356 5.856-9.163v0zM21.337 28.6c-0.206-1.2-0.994-5.375-2.913-10.363-0.031 0.012-0.063 0.019-0.087 0.031-7.713 2.688-10.481 8.031-10.725 8.531 2.319 1.806 5.231 2.887 8.387 2.887 1.894 0 3.7-0.387 5.338-1.087v0zM5.844 25.156c0.313-0.531 4.063-6.738 11.106-9.019 0.175-0.056 0.356-0.113 0.538-0.162-0.344-0.775-0.719-1.556-1.106-2.319-6.819 2.044-13.444 1.956-14.044 1.95-0.006 0.137-0.006 0.275-0.006 0.419 0 3.506 1.331 6.712 3.512 9.131v0zM2.625 13.219c0.612 0.006 6.244 0.031 12.637-1.662-2.262-4.025-4.706-7.412-5.069-7.906-3.825 1.806-6.688 5.331-7.569 9.569v0zM12.8 2.731c0.375 0.506 2.863 3.888 5.1 8 4.863-1.819 6.919-4.588 7.163-4.938-2.413-2.144-5.587-3.444-9.063-3.444-1.1 0.006-2.175 0.138-3.2 0.381v0zM26.581 7.381c-0.288 0.388-2.581 3.325-7.631 5.388 0.319 0.65 0.625 1.313 0.906 1.981 0.1 0.238 0.2 0.469 0.294 0.706 4.55-0.569 9.069 0.344 9.519 0.438-0.031-3.225-1.188-6.188-3.087-8.512v0z"></path>
</symbol>
<symbol id="icon-linkedin" viewBox="0 0 32 32">
<path d="M29 0h-26c-1.65 0-3 1.35-3 3v26c0 1.65 1.35 3 3 3h26c1.65 0 3-1.35 3-3v-26c0-1.65-1.35-3-3-3zM12 26h-4v-14h4v14zM10 10c-1.106 0-2-0.894-2-2s0.894-2 2-2c1.106 0 2 0.894 2 2s-0.894 2-2 2zM26 26h-4v-8c0-1.106-0.894-2-2-2s-2 0.894-2 2v8h-4v-14h4v2.481c0.825-1.131 2.087-2.481 3.5-2.481 2.488 0 4.5 2.238 4.5 5v9z"></path>
</symbol>
</defs>
</svg>
