<!-- Generated by IcoMoon.io -->
<svg version="1.1" xmlns="http://www.w3.org/2000/svg" width="32" height="32" viewBox="0 0 32 32">
<title>Path</title>
<path fill="#f8f8f8" d="M31.17 15.979c0 1.026-0.104 2.051-0.309 3.049-0.2 0.975-0.496 1.932-0.884 2.847-0.379 0.899-0.85 1.765-1.399 2.573-0.541 0.803-1.165 1.556-1.85 2.242-0.687 0.683-1.442 1.305-2.245 1.849-0.811 0.546-1.678 1.015-2.577 1.397-0.916 0.386-1.876 0.682-2.85 0.882-1 0.206-2.028 0.311-3.056 0.311s-2.056-0.105-3.055-0.311c-0.976-0.2-1.935-0.496-2.851-0.882-0.899-0.381-1.768-0.851-2.578-1.397-0.802-0.544-1.558-1.166-2.243-1.849-0.686-0.687-1.31-1.439-1.852-2.242-0.547-0.808-1.018-1.674-1.399-2.573-0.388-0.915-0.685-1.872-0.886-2.847-0.203-0.999-0.307-2.023-0.307-3.049s0.104-2.053 0.307-3.050c0.201-0.975 0.498-1.934 0.886-2.847 0.381-0.899 0.852-1.766 1.399-2.574 0.542-0.803 1.166-1.555 1.852-2.242 0.685-0.684 1.441-1.304 2.243-1.847 0.81-0.548 1.679-1.018 2.578-1.4 0.916-0.387 1.875-0.684 2.851-0.882 0.999-0.204 2.027-0.308 3.055-0.308s2.056 0.104 3.056 0.308c0.974 0.198 1.933 0.495 2.85 0.882 0.899 0.382 1.767 0.851 2.577 1.4 0.802 0.543 1.558 1.163 2.245 1.847 0.685 0.687 1.309 1.439 1.851 2.242 0.549 0.808 1.020 1.675 1.399 2.574 0.388 0.914 0.684 1.872 0.884 2.847 0.205 0.996 0.309 2.023 0.309 3.050zM10.472 4.278c-3.613 1.704-6.309 5.028-7.15 9.034 0.342 0.003 5.74 0.071 11.961-1.579-2.242-3.978-4.638-7.225-4.811-7.455zM16.356 13.725c-6.671 1.994-13.072 1.851-13.301 1.842-0.004 0.139-0.010 0.274-0.010 0.413 0 3.323 1.256 6.353 3.319 8.644-0.004-0.007 3.541-6.288 10.532-8.545 0.169-0.056 0.341-0.107 0.511-0.155-0.325-0.735-0.68-1.472-1.051-2.198zM24.555 6.27c-2.281-2.008-5.276-3.227-8.556-3.227-1.053 0-2.074 0.127-3.053 0.362 0.194 0.26 2.628 3.484 4.843 7.546 4.889-1.83 6.734-4.635 6.766-4.682zM18.29 18.067c-0.029 0.010-0.058 0.018-0.086 0.028-7.644 2.661-10.14 8.023-10.167 8.082 2.199 1.708 4.958 2.738 7.963 2.738 1.794 0 3.503-0.365 5.058-1.025-0.192-1.13-0.945-5.092-2.768-9.823zM23.239 26.708c2.909-1.96 4.975-5.073 5.551-8.678-0.267-0.086-3.891-1.232-8.073-0.562 1.699 4.663 2.39 8.461 2.522 9.24zM18.787 12.88c0.301 0.617 0.592 1.245 0.861 1.876 0.096 0.226 0.189 0.448 0.28 0.67 4.451-0.559 8.835 0.382 9.023 0.42-0.030-3.067-1.128-5.881-2.946-8.085-0.025 0.035-2.102 3.033-7.218 5.119z"></path>
</svg>
