<!-- Generated by IcoMoon.io -->
<svg version="1.1" xmlns="http://www.w3.org/2000/svg" width="26" height="32" viewBox="0 0 26 32">
<title>Vector1</title>
<path fill="none" stroke="#fff" stroke-linejoin="miter" stroke-linecap="butt" stroke-miterlimit="4" stroke-width="2.4" d="M1.6 27.378c0-3.861 2.716-7.15 6.406-7.758l0.332-0.055c2.955-0.487 5.967-0.487 8.922 0l0.332 0.055c3.691 0.608 6.406 3.897 6.406 7.758 0 1.669-1.31 3.022-2.925 3.022h-16.55c-1.615 0-2.925-1.353-2.925-3.022z"></path>
<path fill="none" stroke="#fff" stroke-linejoin="miter" stroke-linecap="butt" stroke-miterlimit="4" stroke-width="2.4" d="M19.333 7.9c0 3.479-2.925 6.3-6.533 6.3s-6.533-2.821-6.533-6.3 2.925-6.3 6.533-6.3c3.608 0 6.533 2.821 6.533 6.3z"></path>
</svg>
