<!-- Generated by IcoMoon.io -->
<svg version="1.1" xmlns="http://www.w3.org/2000/svg" width="29" height="32" viewBox="0 0 29 32">
<title>Vector2</title>
<path fill="#fff" d="M2.645 24.074v0zM2.090 15.112v0zM26.71 15.112v0zM26.155 24.074v0zM17.658 30.148v0zM11.142 30.148v0zM8.132 9.257v0zM20.668 9.257v0zM9.944 29.962v0zM2.794 24.437v0zM18.856 29.962v0zM26.006 24.437v0zM26.588 14.662v0zM2.212 14.662v0zM19.484 9.641v0zM18.045 9.934c-0.267 0.607 0.009 1.315 0.616 1.581s1.315-0.009 1.581-0.616l-2.197-0.966zM9.316 9.641v0zM8.558 10.9c0.267 0.607 0.975 0.882 1.581 0.616s0.882-0.975 0.616-1.581l-2.197 0.966zM13.189 1.719v0zM13.377 1.687v0zM15.423 1.687v0zM15.611 1.719v0zM19.88 5.677v0zM8.919 5.677v0zM18.672 28.776l-1.198 0.186 0.369 2.372 1.198-0.187-0.369-2.371zM11.326 28.962l-1.198-0.186-0.369 2.371 1.198 0.187 0.369-2.372zM25.43 14.977l0.122 0.45 2.316-0.63-0.122-0.45-2.316 0.63zM25.044 23.62l-0.149 0.364 2.221 0.908 0.149-0.364-2.221-0.908zM3.904 23.983l-0.149-0.363-2.221 0.908 0.149 0.363 2.221-0.908zM3.248 15.427l0.122-0.45-2.316-0.63-0.122 0.45 2.316 0.63zM3.756 23.62c-1.069-2.613-1.246-5.48-0.508-8.193l-2.316-0.63c-0.877 3.224-0.665 6.63 0.602 9.731l2.221-0.908zM25.552 15.427c0.738 2.713 0.56 5.579-0.508 8.193l2.221 0.908c1.268-3.1 1.479-6.507 0.602-9.731l-2.316 0.63zM17.474 28.962c-2.036 0.317-4.112 0.317-6.148 0l-0.369 2.372c2.28 0.355 4.605 0.355 6.886 0l-0.369-2.372zM8.37 10.433c3.976-0.805 8.084-0.805 12.060 0l0.476-2.352c-4.29-0.868-8.722-0.868-13.012 0l0.476 2.352zM10.128 28.776c-2.842-0.442-5.196-2.28-6.224-4.793l-2.221 0.908c1.361 3.328 4.443 5.69 8.076 6.256l0.369-2.371zM19.041 31.147c3.634-0.565 6.716-2.928 8.076-6.256l-2.221-0.908c-1.027 2.513-3.382 4.35-6.224 4.793l0.369 2.371zM20.43 10.433c2.464 0.499 4.383 2.276 5 4.544l2.316-0.63c-0.867-3.189-3.532-5.598-6.84-6.267l-0.476 2.352zM7.894 8.080c-3.307 0.669-5.973 3.078-6.84 6.267l2.316 0.63c0.617-2.268 2.536-4.046 5-4.544l-0.476-2.352zM18.385 9.158l-0.341 0.776 2.197 0.966 0.341-0.776-2.197-0.966zM8.217 10.124l0.341 0.776 2.197-0.966-0.341-0.776-2.197 0.966zM13.391 2.902l0.188-0.032-0.404-2.366-0.188 0.032 0.404 2.366zM15.222 2.87l0.188 0.032 0.404-2.366-0.188-0.032-0.404 2.366zM18.708 5.935c0.237 1.079 0.125 2.203-0.323 3.224l2.197 0.966c0.652-1.484 0.817-3.125 0.47-4.704l-2.344 0.515zM7.747 5.42c-0.347 1.579-0.182 3.22 0.47 4.704l2.197-0.966c-0.449-1.021-0.56-2.144-0.323-3.224l-2.344-0.515zM13.579 2.87c0.543-0.093 1.1-0.093 1.643 0l0.404-2.366c-0.811-0.138-1.64-0.138-2.451 0l0.404 2.366zM21.053 5.42c-0.556-2.532-2.651-4.442-5.239-4.884l-0.404 2.366c1.68 0.287 2.964 1.509 3.299 3.033l2.344-0.515zM10.091 5.935c0.335-1.524 1.619-2.747 3.299-3.033l-0.404-2.366c-2.589 0.442-4.683 2.353-5.239 4.884l2.344 0.515z"></path>
</svg>
