<!-- Generated by IcoMoon.io -->
<svg version="1.1" xmlns="http://www.w3.org/2000/svg" width="32" height="32" viewBox="0 0 32 32">
<title>Vector</title>
<path fill="#fff" d="M30.276 1.724c0.362 0.362 0.485 0.9 0.316 1.383l-9.333 26.667c-0.181 0.516-0.658 0.869-1.204 0.892s-1.051-0.291-1.273-0.791l-5.125-11.531-11.531-5.125c-0.5-0.222-0.813-0.727-0.791-1.273s0.376-1.024 0.892-1.204l26.667-9.333c0.484-0.169 1.021-0.046 1.383 0.316zM16.257 17.629l3.595 8.090 6.292-17.978-9.888 9.888zM24.259 5.855l-17.978 6.292 8.090 3.596 9.888-9.888z"></path>
</svg>
